<svg width="33" height="24" viewBox="0 0 33 24" fill="none" xmlns="http://www.w3.org/2000/svg">
<path d="M27.6629 2.02652C27.6536 2.0092 27.6384 1.99586 27.62 1.98902C25.5792 1.05252 23.4256 0.384475 21.2131 0.00157991C21.1932 -0.00206326 21.1727 0.000630973 21.1544 0.00928215C21.1362 0.0179333 21.1211 0.0321042 21.1113 0.0497927C20.8178 0.582432 20.5514 1.12954 20.3131 1.68903C17.9268 1.32683 15.4996 1.32683 13.1133 1.68903C12.8741 1.12816 12.604 0.580913 12.3044 0.0497927C12.2941 0.0326313 12.2789 0.0189022 12.2608 0.0103258C12.2427 0.00174936 12.2225 -0.001293 12.2027 0.00157991C9.98625 0.38275 7.82891 1.05084 5.785 1.98902C5.76708 1.99661 5.75206 2.00976 5.74215 2.02652C1.66014 8.12811 0.540529 14.0743 1.08694 19.9509C1.08849 19.9657 1.0931 19.98 1.10047 19.9929C1.10785 20.0059 1.11784 20.0171 1.1298 20.0259C3.50756 21.7847 6.1667 23.1269 8.99383 23.9955C9.01415 24.0017 9.03592 24.0015 9.0561 23.9948C9.07628 23.9881 9.09384 23.9752 9.10633 23.958C9.71291 23.1322 10.2504 22.2578 10.7134 21.3438C10.7196 21.3312 10.7231 21.3175 10.7237 21.3035C10.7243 21.2895 10.722 21.2755 10.717 21.2624C10.712 21.2493 10.7043 21.2375 10.6945 21.2275C10.6846 21.2175 10.6729 21.2097 10.6598 21.2045C9.81051 20.879 8.98832 20.4867 8.201 20.0313C8.18708 20.0228 8.17542 20.011 8.16699 19.9971C8.15857 19.9831 8.15362 19.9673 8.15257 19.951C8.15152 19.9348 8.1544 19.9185 8.16096 19.9035C8.16752 19.8886 8.17758 19.8755 8.19028 19.8652C8.35635 19.742 8.52242 19.6134 8.67777 19.4849C8.69148 19.4729 8.70832 19.465 8.72633 19.4621C8.74435 19.4593 8.7628 19.4616 8.77955 19.4688C13.933 21.8205 19.5149 21.8205 24.6094 19.4688C24.6257 19.4609 24.6438 19.4577 24.6618 19.4595C24.6798 19.4614 24.6969 19.4684 24.7112 19.4795C24.8665 19.6081 25.0326 19.742 25.1987 19.8652C25.2114 19.8755 25.2214 19.8886 25.228 19.9035C25.2346 19.9185 25.2374 19.9348 25.2364 19.951C25.2353 19.9673 25.2304 19.9831 25.222 19.9971C25.2135 20.011 25.2019 20.0228 25.188 20.0313C24.4027 20.4891 23.5801 20.8797 22.7291 21.1991C22.7161 21.2043 22.7043 21.2122 22.6945 21.2221C22.6846 21.2321 22.677 21.244 22.6719 21.2571C22.6669 21.2701 22.6646 21.2841 22.6652 21.2981C22.6659 21.3121 22.6694 21.3258 22.6755 21.3384C23.1466 22.2479 23.6837 23.1217 24.2826 23.9526C24.2951 23.9698 24.3127 23.9827 24.3328 23.9894C24.353 23.9961 24.3748 23.9964 24.3951 23.9901C27.2304 23.1255 29.8972 21.783 32.2806 20.0206C32.2928 20.012 32.303 20.0008 32.3104 19.9879C32.3178 19.9749 32.3222 19.9605 32.3234 19.9456C32.977 13.1583 31.2199 7.26028 27.6629 2.02652ZM11.4848 16.3725C9.9313 16.3725 8.65634 14.9475 8.65634 13.2012C8.65634 11.4548 9.90987 10.0245 11.4848 10.0245C13.0758 10.0245 14.3401 11.4601 14.3133 13.1958C14.3133 14.9475 13.0598 16.3725 11.4848 16.3725ZM21.9523 16.3725C20.3988 16.3725 19.1239 14.9475 19.1239 13.2012C19.1239 11.4548 20.372 10.0245 21.9523 10.0245C23.5434 10.0245 24.8076 11.4601 24.7808 13.1958C24.7808 14.9475 23.538 16.3725 21.9523 16.3725Z" fill="#3D3935"/>
</svg>
