<svg width="22" height="24" viewBox="0 0 22 24" fill="none" xmlns="http://www.w3.org/2000/svg">
<path d="M21.4122 9.84003C19.3476 9.84445 17.3338 9.19997 15.6554 7.99766V16.3797C15.6549 17.9321 15.1805 19.4474 14.2955 20.7228C13.4105 21.9983 12.1572 22.9731 10.7032 23.5169C9.24915 24.0608 7.66374 24.1477 6.15897 23.7661C4.65421 23.3845 3.30183 22.5525 2.28271 21.3815C1.26359 20.2104 0.626315 18.7561 0.456114 17.2131C0.285914 15.6701 0.590902 14.1118 1.33029 12.7468C2.06968 11.3818 3.20821 10.2751 4.59363 9.57468C5.97905 8.87428 7.54529 8.61357 9.08289 8.82743V13.0419C8.37982 12.8206 7.6248 12.8271 6.92562 13.0604C6.22645 13.2938 5.61889 13.742 5.18967 14.3413C4.76046 14.9405 4.53155 15.66 4.53562 16.3971C4.5397 17.1341 4.77655 17.8511 5.21236 18.4455C5.64817 19.04 6.26066 19.4815 6.96237 19.7071C7.66407 19.9327 8.41912 19.9309 9.1197 19.7018C9.82028 19.4727 10.4306 19.0281 10.8634 18.4315C11.2963 17.8349 11.5296 17.1168 11.53 16.3797V0H15.6554C15.6531 0.348908 15.6829 0.697289 15.7445 1.04073C15.8879 1.80627 16.186 2.53452 16.6205 3.18097C17.0549 3.82741 17.6166 4.37847 18.2713 4.80047C19.2031 5.41593 20.2955 5.74363 21.4122 5.74275V9.84003Z" fill="#3D3935"/>
</svg>
