<svg width="30" height="24" viewBox="0 0 30 24" fill="none" xmlns="http://www.w3.org/2000/svg">
<path d="M26.8747 5.98413C26.892 6.24381 26.892 6.50926 26.892 6.76894C26.892 14.7728 20.7983 24 9.66097 24C6.22745 24 3.04207 23.0075 0.364502 21.282C0.849234 21.3397 1.32242 21.3571 1.82447 21.3571C4.65784 21.3571 7.26039 20.3991 9.34358 18.7718C6.68333 18.7141 4.4501 16.9714 3.68261 14.5708C4.0577 14.6285 4.43279 14.6631 4.82519 14.6631C5.36763 14.6631 5.91007 14.5881 6.41788 14.4554C3.64221 13.8956 1.56479 11.4547 1.56479 8.51166V8.43664C2.37268 8.88675 3.30752 9.16951 4.30006 9.20414C2.66698 8.11926 1.59941 6.26112 1.59941 4.16062C1.59941 3.03535 1.89949 2.0024 2.42461 1.10219C5.40802 4.77807 9.88602 7.17865 14.9122 7.43833C14.8199 6.98822 14.7622 6.5208 14.7622 6.05338C14.7622 2.71796 17.4628 0 20.8156 0C22.5583 0 24.1337 0.732868 25.2416 1.91007C26.6093 1.6504 27.925 1.14258 29.0849 0.450108C28.6348 1.85814 27.6768 3.03535 26.4246 3.78553C27.6422 3.6528 28.8252 3.31811 29.9101 2.85069C29.0849 4.05097 28.0519 5.11854 26.8747 5.98413Z" fill="#3D3935"/>
</svg>
