<svg width="35" height="24" viewBox="0 0 35 24" fill="none" xmlns="http://www.w3.org/2000/svg">
<path d="M34.2875 3.75625C33.8938 2.275 32.7375 1.1125 31.2688 0.71875C28.6063 0 17.9313 0 17.9313 0C17.9313 0 7.2563 0 4.5938 0.71875C3.12505 1.1125 1.9688 2.275 1.57505 3.75625C0.862549 6.4375 0.862549 12.025 0.862549 12.025C0.862549 12.025 0.862549 17.6125 1.57505 20.2938C1.9688 21.775 3.12505 22.8875 4.5938 23.2812C7.2563 24 17.9313 24 17.9313 24C17.9313 24 28.6063 24 31.2688 23.2812C32.7375 22.8875 33.8938 21.7688 34.2875 20.2938C35 17.6125 35 12.025 35 12.025C35 12.025 35 6.4375 34.2875 3.75625ZM14.4438 17.1V6.95L23.3625 12.025L14.4438 17.1Z" fill="#3D3935"/>
</svg>
