<svg width="365" height="376" viewBox="0 0 365 376" fill="none" xmlns="http://www.w3.org/2000/svg">
<path d="M159.03 331C158.58 332.02 160 332.81 160.62 331.89C170.75 317.15 181.64 310.12 188.37 306.7C207.36 296.97 232.21 295.71 239.65 295.31C245.86 294.99 253.13 295.01 263.65 292.73C267.5 291.91 271.02 290.92 274.2 289.9C284.72 286.52 294.45 280.94 302.35 273.2C307.96 267.72 313.17 260.72 315.86 252.15C319.68 239.86 319.8 225.99 319.8 225.99C319.85 219.44 319.16 217.11 319.93 212.71C321.62 202.88 328.34 195.66 334.52 190.72C334.57 190.69 334.62 190.65 334.67 190.62C341.96 186.8 361 179.75 364.31 175.53C364.58 175.18 364.53 174.64 364.21 174.34C362.1 172.35 359.79 173.17 353.51 171.83C343.31 169.67 345.42 170.19 340.97 168.83C340.72 168.76 340.52 168.61 340.42 168.38C338.11 164.06 332.48 155.3 322.77 152.62C310.06 149.12 293.7 156.91 283.45 173.44C282.85 174.41 284.19 175.38 284.94 174.53C297.13 160.48 312.84 156.04 322.27 161.1C329.17 164.8 331.85 173.14 333.27 176.24C333.42 176.56 333.74 176.76 334.09 176.76L346.5 176.88C347.62 176.88 347.77 178.49 346.67 178.69C339.99 180.03 330.09 182.19 322.07 191.35C320.93 192.67 319.88 194.01 318.94 195.32C313.11 203.68 310.82 213.96 312.07 224.08C312.89 230.88 312.87 240.86 308.4 251.53C304.48 260.84 298.72 266.99 294.97 270.37C294.94 270.4 294.89 270.42 294.87 270.44C288.81 274.54 281.02 278.95 271.46 282.53C252.72 289.55 235.82 290.07 224.84 289.43C223.72 289.36 222.61 289.36 221.49 289.41C213.37 289.71 193.09 291.87 175.74 307.68C167.15 315.5 162.06 324.16 159.03 330.98H159L159.03 331Z" fill="#FFCD03"/>
<path d="M276.86 158.04C277.78 158.59 278.72 157.37 277.98 156.6C274.43 152.98 269.52 149.4 262.74 147.49C257.15 145.9 252.51 146.08 248.05 146.1C248.05 146.1 242.69 146.1 209.85 143.05C190.04 141.19 169.36 130.09 157.25 114.63C140.2 92.8599 142.63 65.7399 145.21 52.2599C145.41 51.2199 143.99 50.7199 143.5 51.6599C138.24 61.5399 131.86 75.1899 131.51 91.4699C131.24 104.43 135.93 117.03 137.77 125.2C137.92 125.87 137.32 126.44 136.65 126.29C133.47 125.55 127.96 123.68 122.92 118.92C118.6 114.85 116.34 110.26 115.15 106.76C114.83 105.79 113.41 106.02 113.36 107.01C113.11 113.19 114.35 122.15 118.92 132.27C124.88 145.5 135.82 152.1 143 155.23C143.97 155.65 144.76 154.39 143.97 153.69C140.12 150.44 136.13 146.22 132.68 140.86C131.41 138.9 130.35 136.96 129.43 135.1C129.06 134.33 129.85 133.49 130.65 133.86C134.87 135.85 139.31 137.78 143.95 139.67C146.31 140.64 148.67 141.56 150.97 142.43C151.71 142.7 152.43 141.98 152.16 141.24C150.72 137.37 149.28 133.52 147.84 129.65C147.49 128.68 148.73 127.94 149.4 128.73C158.98 140.15 169.43 145.38 176.41 147.96C197.96 155.93 225.61 153.35 231.49 152.73C241.67 151.66 249.09 149.83 259.76 151.79C266.83 153.08 272.52 155.54 276.89 158.04H276.86Z" fill="#FFCD03"/>
<path d="M202.99 259.87C198.72 263.37 173.72 283.12 136.81 276.67C107.97 271.63 88.9299 253.56 81.0299 244.73C80.3599 243.96 81.2299 242.82 82.1499 243.29C85.1999 244.88 88.8499 246.49 92.9999 247.78C97.9399 249.34 102.41 250.11 106.18 250.49C107.2 250.59 107.6 249.2 106.68 248.75C97.6399 244.26 83.9199 235.84 71.1099 221C57.3299 205.04 50.8799 188.86 47.8799 179.16C47.6099 178.27 48.6499 177.6 49.3399 178.19C51.9699 180.45 54.5799 182.68 57.2099 184.94C57.9799 185.61 59.0999 184.69 58.6299 183.8C54.8099 176.85 50.2199 166.28 48.4299 153C46.1199 135.68 49.7699 122.15 52.3999 114.93C52.6699 114.19 53.6899 114.11 54.0599 114.81C59.8899 125.38 71.3399 142.61 91.1199 155.46C116.24 171.79 141.43 172.44 155.34 172.61C187.68 173.01 193.86 161.81 215.81 165.81C227.38 167.92 242.97 174.17 260.89 192.59C261.71 193.43 260.54 194.68 259.65 193.93C241.88 179.39 226.49 174.17 214.23 172.76C191.42 170.13 186.53 181.4 154.38 181.5C141.42 181.55 116.6 181.3 91.0599 165.62C75.6499 156.16 65.3399 144.38 59.1399 135.96C58.6399 135.29 57.5999 135.56 57.4999 136.38C56.2099 146.41 55.3199 166.76 67.5999 183.61C79.8399 200.41 99.9399 206.57 120.67 212.95C127 214.89 132.68 216.23 137.4 217.17C138.42 217.37 138.37 218.86 137.33 218.98C129.46 219.87 119.58 220.2 108.29 218.76C94.1199 216.97 82.3299 213 73.6399 209.33C72.7699 208.96 71.9799 210 72.5499 210.74C78.6799 218.56 90.2999 231.09 108.29 240.27C125.24 248.91 140.53 250.77 149.94 251.02C150.93 251.05 151.18 252.43 150.24 252.81C145.45 254.65 139.54 256.41 132.67 257.43C122.69 258.89 113.85 258.37 107.05 257.36C106.11 257.21 105.59 258.45 106.38 259.02C113.55 264.16 124.35 270.41 138.15 273.54C172.06 281.21 197.4 263.91 203.04 259.84L203.01 259.89L202.99 259.87Z" fill="#FFCD03"/>
<path d="M353.9 274.79C338.88 304.5 315.33 329.94 286.83 347.66C272.58 356.54 257.02 363.27 240.91 368.11C232.82 370.37 224.6 372.38 216.26 373.54C212.11 374.28 207.89 374.56 203.7 375.05C199.48 375.25 195.28 375.7 191.07 375.62C157.29 376.34 123.43 367.28 94.1098 350.38C79.3898 342.02 66.0098 331.37 54.0498 319.38C42.3098 307.19 31.9098 293.62 23.7698 278.75C7.20979 249.17 -0.950216 215.02 0.0897837 181.2C1.25978 147.37 11.6098 113.89 29.9498 85.57C48.1198 57.08 74.3098 34.07 104.32 19.08C134.48 4.33999 168.53 -2.31001 201.69 0.719988C185.08 0.0299876 168.43 1.50999 152.27 5.10999C136.14 8.72999 120.52 14.52 105.95 22.26C76.8098 37.6 51.7098 60.55 34.6398 88.55C17.5098 116.45 7.60978 148.76 6.88978 181.45C6.09978 214.06 14.0098 246.9 30.0498 275.34C37.8198 289.68 47.7998 302.76 59.0698 314.55C70.5398 326.14 83.4198 336.37 97.5398 344.58C111.56 352.94 126.81 359.22 142.54 363.62C158.33 367.81 174.66 370.17 191.04 370.2C195.14 370.35 199.23 369.98 203.33 369.88C207.4 369.46 211.52 369.28 215.57 368.64C223.71 367.67 231.75 365.86 239.7 363.83C255.51 359.41 270.85 353.08 285.05 344.72C299.27 336.43 312.53 326.33 324.07 314.47C335.64 302.63 345.69 289.3 353.91 274.84V274.81L353.9 274.79Z" fill="#FFCD03"/>
</svg>
