<svg width="184" height="172" viewBox="0 0 184 172" fill="none" xmlns="http://www.w3.org/2000/svg">
<path d="M11.5687 156.799L5.4449 163.721V171.99H0V142.532H5.4449V155.455L16.8596 142.532H24.0681L15.4599 152.407L26.0907 171.99H19.8725L11.5687 156.799Z" fill="#FFCD03"/>
<path d="M65.0758 151.676V171.99H59.6904V142.532H65.0234L80.1018 162.534V142.532H85.4872V171.99H80.4132L65.0723 151.676H65.0758Z" fill="#FFCD03"/>
<path d="M138.838 159.903C142.249 158.401 144.37 155.245 144.37 151.627C144.37 147.008 140.689 142.525 135.051 142.525H119.077V171.993H124.505V160.669H133.043L138.673 171.993H144.874L138.827 159.896L138.838 159.906V159.903ZM134.953 155.245H124.505V147.96H134.953C137.298 147.96 138.932 149.506 138.932 151.623C138.932 153.74 137.284 155.238 134.953 155.238V155.245Z" fill="#FFCD03"/>
<path d="M154.081 142.532H148.625V172H154.081V142.532Z" fill="#FFCD03"/>
<path d="M45.1584 142.498H40.6583L29.835 171.965H34.7585L37.215 165.295H48.6297L51.0442 171.965H55.9257L45.1479 142.498H45.1584ZM39.2271 159.816L42.9188 149.731L46.6106 159.816H39.2271Z" fill="#FFCD03"/>
<path d="M104.555 142.532H100.055L89.2319 172H94.1554L96.6119 165.33H108.027L110.441 172H115.323L104.545 142.532H104.555ZM98.6205 159.847L102.312 149.766L106.004 159.847H98.6205Z" fill="#FFCD03"/>
<path d="M173.148 142.498H168.648L157.825 171.965H162.748L165.205 165.295H176.62L179.034 171.965H183.916L173.138 142.498H173.145H173.148ZM167.214 159.816L170.905 149.731L174.597 159.816H167.214Z" fill="#FFCD03"/>
<path d="M85.0889 115.826C84.9314 116.183 85.4283 116.459 85.6453 116.137C89.1901 110.979 93.0008 108.519 95.3558 107.323C102.001 103.918 110.697 103.477 113.3 103.337C115.473 103.225 118.017 103.232 121.698 102.434C123.046 102.147 124.277 101.801 125.39 101.444C129.071 100.261 132.476 98.3085 135.241 95.6001C137.204 93.6825 139.027 91.233 139.968 88.2341C141.305 83.9334 141.347 79.0799 141.347 79.0799C141.365 76.7879 141.123 75.9726 141.393 74.4329C141.984 70.9931 144.335 68.4666 146.498 66.7379C146.515 66.7274 146.533 66.7134 146.55 66.7029C149.101 65.3662 155.764 62.8992 156.922 61.4225C157.017 61.3 156.999 61.1111 156.887 61.0061C156.149 60.3097 155.341 60.5967 153.143 60.1278C149.574 59.3719 150.312 59.5539 148.755 59.078C148.668 59.0535 148.598 59.001 148.563 58.9205C147.754 57.4088 145.784 54.3434 142.386 53.4056C137.939 52.1809 132.214 54.9068 128.627 60.6911C128.417 61.0306 128.886 61.37 129.148 61.0726C133.414 56.1561 138.912 54.6024 142.211 56.373C144.626 57.6678 145.564 60.5862 146.061 61.6709C146.113 61.7829 146.225 61.8529 146.348 61.8529L150.69 61.8949C151.082 61.8949 151.135 62.4583 150.75 62.5283C148.412 62.9972 144.948 63.753 142.141 66.9584C141.742 67.4203 141.375 67.8892 141.046 68.3476C139.006 71.273 138.205 74.8703 138.642 78.4116C138.929 80.7911 138.922 84.2834 137.358 88.0171C135.986 91.275 133.971 93.427 132.658 94.6098C132.648 94.6203 132.63 94.6273 132.623 94.6343C130.503 96.069 127.777 97.6122 124.431 98.8649C117.874 101.321 111.96 101.503 108.118 101.279C107.726 101.255 107.337 101.255 106.945 101.272C104.104 101.377 97.0075 102.133 90.9362 107.666C87.9303 110.402 86.1492 113.432 85.0889 115.819H85.0784L85.0889 115.826Z" fill="#FFCD03"/>
<path d="M126.321 55.3023C126.643 55.4948 126.972 55.0679 126.713 54.7984C125.471 53.5317 123.753 52.2789 121.38 51.6105C119.424 51.0542 117.8 51.1171 116.24 51.1241C116.24 51.1241 114.364 51.1241 102.872 50.0569C95.9404 49.406 88.7039 45.5218 84.4662 40.1119C78.4999 32.4939 79.3502 23.0038 80.2531 18.2868C80.3231 17.9229 79.8262 17.7479 79.6547 18.0768C77.8141 21.5341 75.5815 26.3107 75.459 32.0075C75.3646 36.5426 77.0057 40.9517 77.6496 43.8106C77.7021 44.0451 77.4921 44.2445 77.2577 44.192C76.1449 43.9331 74.2168 43.2787 72.4531 41.6131C70.9415 40.1889 70.1506 38.5827 69.7342 37.3579C69.6222 37.0185 69.1253 37.099 69.1078 37.4454C69.0203 39.608 69.4543 42.7433 71.0534 46.2846C73.139 50.9142 76.9672 53.2237 79.4797 54.319C79.8192 54.466 80.0956 54.0251 79.8192 53.7801C78.4719 52.6428 77.0757 51.1661 75.8685 49.2905C75.424 48.6047 75.0531 47.9258 74.7312 47.2749C74.6017 47.0055 74.8782 46.7115 75.1581 46.841C76.6348 47.5374 78.1885 48.2127 79.8122 48.8741C80.638 49.2135 81.4638 49.5355 82.2687 49.8399C82.5276 49.9344 82.7796 49.6824 82.6851 49.4235C82.1812 48.0693 81.6773 46.722 81.1734 45.3678C81.0509 45.0284 81.4848 44.7694 81.7193 45.0459C85.0716 49.0421 88.7284 50.8722 91.1709 51.775C98.7118 54.564 108.387 53.6611 110.445 53.4442C114.007 53.0698 116.604 52.4294 120.337 53.1152C122.811 53.5667 124.803 54.4275 126.332 55.3023H126.321Z" fill="#FFCD03"/>
<path d="M100.472 90.935C98.9775 92.1597 90.2292 99.0708 77.3134 96.8138C67.2214 95.0502 60.5587 88.7269 57.7943 85.6371C57.5598 85.3676 57.8643 84.9687 58.1862 85.1332C59.2535 85.6895 60.5307 86.2529 61.983 86.7043C63.7116 87.2502 65.2758 87.5197 66.595 87.6527C66.9519 87.6876 67.0919 87.2012 66.77 87.0438C63.6066 85.4726 58.8056 82.5262 54.323 77.3332C49.501 71.7484 47.2439 66.0865 46.1941 62.6922C46.0997 62.3808 46.4636 62.1463 46.705 62.3528C47.6254 63.1436 48.5387 63.9239 49.459 64.7148C49.7284 64.9492 50.1203 64.6273 49.9559 64.3159C48.6192 61.8839 47.013 58.1851 46.3866 53.538C45.5783 47.4773 46.8555 42.7427 47.7758 40.2162C47.8703 39.9573 48.2272 39.9293 48.3567 40.1742C50.3968 43.873 54.4035 49.9023 61.3251 54.3989C70.1153 60.1132 78.93 60.3407 83.7975 60.4002C95.1143 60.5401 97.2768 56.6209 104.958 58.0206C109.006 58.759 114.462 60.946 120.733 67.3917C121.02 67.6857 120.61 68.1231 120.299 67.8606C114.08 62.7727 108.695 60.946 104.405 60.4526C96.423 59.5323 94.7118 63.476 83.4616 63.511C78.9265 63.5285 70.2413 63.441 61.3041 57.9541C55.9117 54.6438 52.3039 50.5217 50.1343 47.5753C49.9594 47.3408 49.5955 47.4353 49.5605 47.7222C49.1091 51.232 48.7976 58.3531 53.0947 64.2494C57.3779 70.1282 64.4115 72.2838 71.6655 74.5163C73.8805 75.1952 75.8681 75.6641 77.5198 75.993C77.8767 76.063 77.8592 76.5844 77.4953 76.6264C74.7414 76.9378 71.2841 77.0533 67.3334 76.5494C62.3749 75.923 58.2492 74.5338 55.2083 73.2496C54.9039 73.1201 54.6274 73.484 54.8269 73.743C56.972 76.4794 61.0381 80.864 67.3334 84.0764C73.2647 87.0998 78.6151 87.7506 81.9079 87.8381C82.2544 87.8486 82.3418 88.3315 82.0129 88.4645C80.3367 89.1084 78.2687 89.7242 75.8646 90.0812C72.3724 90.5921 69.279 90.4101 66.8995 90.0567C66.5705 90.0042 66.3886 90.4381 66.665 90.6375C69.174 92.4362 72.9532 94.6232 77.7823 95.7185C89.6484 98.4025 98.5156 92.3487 100.489 90.9245L100.479 90.942L100.472 90.935Z" fill="#FFCD03"/>
<path d="M153.283 96.1562C148.027 106.553 139.786 115.455 129.813 121.656C124.826 124.763 119.382 127.118 113.744 128.812C110.913 129.602 108.037 130.306 105.118 130.712C103.666 130.971 102.19 131.069 100.723 131.24C99.2467 131.31 97.777 131.468 96.3037 131.44C84.4831 131.692 72.6345 128.521 62.3746 122.607C57.2237 119.682 52.5416 115.955 48.3564 111.76C44.2483 107.494 40.609 102.745 37.7606 97.5419C31.9658 87.191 29.1103 75.2409 29.4743 63.4028C29.8837 51.5647 33.5054 39.8491 39.9232 29.9391C46.2814 19.9696 55.446 11.9177 65.9474 6.67231C76.4978 1.51785 88.4163 -0.809181 100.02 0.251104C94.2077 0.00965316 88.3814 0.527549 82.7265 1.78729C77.0821 3.05404 71.6162 5.08013 66.5178 7.78858C56.3208 13.1565 47.5376 21.1874 41.5643 30.9854C35.57 40.7484 32.1057 52.0546 31.8538 63.4938C31.5773 74.905 34.3453 86.3967 39.9581 96.3487C42.6771 101.367 46.1694 105.944 50.1131 110.069C54.1268 114.125 58.6339 117.705 63.5749 120.578C68.4809 123.503 73.8173 125.701 79.3217 127.24C84.8471 128.707 90.5614 129.532 96.2933 129.543C97.728 129.595 99.1592 129.466 100.594 129.431C102.018 129.284 103.46 129.221 104.877 128.997C107.725 128.658 110.539 128.024 113.321 127.314C118.853 125.767 124.221 123.552 129.19 120.627C134.166 117.726 138.806 114.192 142.844 110.041C146.893 105.898 150.41 101.234 153.286 96.1737V96.1632L153.283 96.1562Z" fill="#FFCD03"/>
</svg>
