<svg width="750" height="712" viewBox="0 0 750 712" fill="none" xmlns="http://www.w3.org/2000/svg">
<g filter="url(#filter0_dd_644_59)">
<path d="M117.112 579.009L97.4672 601.214V627.74H80V533.242H97.4672V574.699L134.085 533.242H157.21L129.595 564.921L163.699 627.74H143.751L117.112 579.009Z" fill="#FFCD03"/>
<path d="M117.112 579.009L97.4672 601.214V627.74H80V533.242H97.4672V574.699L134.085 533.242H157.21L129.595 564.921L163.699 627.74H143.751L117.112 579.009Z" fill="url(#paint0_linear_644_59)" fill-opacity="0.8"/>
<path d="M288.765 562.575V627.74H271.488V533.242H288.596L336.968 597.408V533.242H354.244V627.74H337.967L288.753 562.575H288.765Z" fill="#FFCD03"/>
<path d="M288.765 562.575V627.74H271.488V533.242H288.596L336.968 597.408V533.242H354.244V627.74H337.967L288.753 562.575H288.765Z" fill="url(#paint1_linear_644_59)" fill-opacity="0.8"/>
<path d="M525.391 588.966C536.336 584.15 543.139 574.024 543.139 562.417C543.139 547.599 531.329 533.219 513.245 533.219H461.999V627.75H479.41V591.424H506.801L524.863 627.75H544.755L525.357 588.943L525.391 588.977V588.966ZM512.93 574.024H479.41V550.652H512.93C520.451 550.652 525.694 555.614 525.694 562.406C525.694 569.197 520.407 574.002 512.93 574.002V574.024Z" fill="#FFCD03"/>
<path d="M525.391 588.966C536.336 584.15 543.139 574.024 543.139 562.417C543.139 547.599 531.329 533.219 513.245 533.219H461.999V627.75H479.41V591.424H506.801L524.863 627.75H544.755L525.357 588.943L525.391 588.977V588.966ZM512.93 574.024H479.41V550.652H512.93C520.451 550.652 525.694 555.614 525.694 562.406C525.694 569.197 520.407 574.002 512.93 574.002V574.024Z" fill="url(#paint2_linear_644_59)" fill-opacity="0.8"/>
<path d="M574.29 533.242H556.789V627.774H574.29V533.242Z" fill="#FFCD03"/>
<path d="M574.29 533.242H556.789V627.774H574.29V533.242Z" fill="url(#paint3_linear_644_59)" fill-opacity="0.8"/>
<path d="M224.867 533.131H210.431L175.71 627.662H191.505L199.385 606.266H236.003L243.749 627.662H259.409L224.834 533.131H224.867ZM205.84 588.687L217.683 556.334L229.526 588.687H205.84Z" fill="#FFCD03"/>
<path d="M224.867 533.131H210.431L175.71 627.662H191.505L199.385 606.266H236.003L243.749 627.662H259.409L224.834 533.131H224.867ZM205.84 588.687L217.683 556.334L229.526 588.687H205.84Z" fill="url(#paint4_linear_644_59)" fill-opacity="0.8"/>
<path d="M415.412 533.242H400.976L366.255 627.774H382.049L389.93 606.378H426.548L434.294 627.774H449.954L415.379 533.242H415.412ZM396.373 588.787L408.217 556.446L420.06 588.787H396.373Z" fill="#FFCD03"/>
<path d="M415.412 533.242H400.976L366.255 627.774H382.049L389.93 606.378H426.548L434.294 627.774H449.954L415.379 533.242H415.412ZM396.373 588.787L408.217 556.446L420.06 588.787H396.373Z" fill="url(#paint5_linear_644_59)" fill-opacity="0.8"/>
<path d="M635.459 533.131H621.022L586.301 627.662H602.096L609.976 606.266H646.595L654.34 627.662H670L635.425 533.131H635.447H635.459ZM616.42 588.687L628.263 556.334L640.106 588.687H616.42Z" fill="#FFCD03"/>
<path d="M635.459 533.131H621.022L586.301 627.662H602.096L609.976 606.266H646.595L654.34 627.662H670L635.425 533.131H635.447H635.459ZM616.42 588.687L628.263 556.334L640.106 588.687H616.42Z" fill="url(#paint6_linear_644_59)" fill-opacity="0.8"/>
<path d="M352.964 447.568C352.459 448.713 354.053 449.6 354.749 448.567C366.121 432.02 378.346 424.129 385.901 420.289C407.218 409.367 435.114 407.952 443.466 407.503C450.437 407.144 458.598 407.167 470.408 404.607C474.729 403.687 478.681 402.575 482.251 401.43C494.06 397.636 504.983 391.372 513.851 382.683C520.149 376.532 525.997 368.674 529.017 359.053C533.305 345.257 533.44 329.687 533.44 329.687C533.496 322.334 532.721 319.718 533.586 314.779C535.483 303.744 543.027 295.639 549.964 290.094C550.02 290.06 550.076 290.015 550.132 289.982C558.316 285.693 579.69 277.779 583.405 273.042C583.709 272.649 583.652 272.043 583.293 271.706C580.925 269.472 578.331 270.393 571.282 268.888C559.831 266.464 562.2 267.047 557.205 265.521C556.924 265.442 556.7 265.274 556.587 265.016C553.994 260.166 547.674 250.332 536.774 247.324C522.506 243.395 504.141 252.14 492.634 270.696C491.961 271.785 493.465 272.874 494.307 271.919C507.991 256.147 525.627 251.163 536.213 256.843C543.958 260.997 546.967 270.359 548.561 273.839C548.729 274.198 549.089 274.423 549.481 274.423L563.412 274.557C564.67 274.557 564.838 276.365 563.603 276.589C556.105 278.094 544.991 280.518 535.988 290.801C534.708 292.283 533.53 293.787 532.474 295.258C525.93 304.642 523.359 316.182 524.762 327.543C525.683 335.176 525.66 346.379 520.643 358.357C516.242 368.808 509.776 375.712 505.566 379.506C505.533 379.54 505.477 379.563 505.454 379.585C498.651 384.188 489.907 389.138 479.175 393.157C458.138 401.037 439.166 401.621 426.841 400.903C425.583 400.824 424.337 400.824 423.08 400.88C413.965 401.217 391.199 403.642 371.723 421.39C362.08 430.168 356.366 439.889 352.964 447.545H352.931L352.964 447.568Z" fill="#FFCD03"/>
<path d="M352.964 447.568C352.459 448.713 354.053 449.6 354.749 448.567C366.121 432.02 378.346 424.129 385.901 420.289C407.218 409.367 435.114 407.952 443.466 407.503C450.437 407.144 458.598 407.167 470.408 404.607C474.729 403.687 478.681 402.575 482.251 401.43C494.06 397.636 504.983 391.372 513.851 382.683C520.149 376.532 525.997 368.674 529.017 359.053C533.305 345.257 533.44 329.687 533.44 329.687C533.496 322.334 532.721 319.718 533.586 314.779C535.483 303.744 543.027 295.639 549.964 290.094C550.02 290.06 550.076 290.015 550.132 289.982C558.316 285.693 579.69 277.779 583.405 273.042C583.709 272.649 583.652 272.043 583.293 271.706C580.925 269.472 578.331 270.393 571.282 268.888C559.831 266.464 562.2 267.047 557.205 265.521C556.924 265.442 556.7 265.274 556.587 265.016C553.994 260.166 547.674 250.332 536.774 247.324C522.506 243.395 504.141 252.14 492.634 270.696C491.961 271.785 493.465 272.874 494.307 271.919C507.991 256.147 525.627 251.163 536.213 256.843C543.958 260.997 546.967 270.359 548.561 273.839C548.729 274.198 549.089 274.423 549.481 274.423L563.412 274.557C564.67 274.557 564.838 276.365 563.603 276.589C556.105 278.094 544.991 280.518 535.988 290.801C534.708 292.283 533.53 293.787 532.474 295.258C525.93 304.642 523.359 316.182 524.762 327.543C525.683 335.176 525.66 346.379 520.643 358.357C516.242 368.808 509.776 375.712 505.566 379.506C505.533 379.54 505.477 379.563 505.454 379.585C498.651 384.188 489.907 389.138 479.175 393.157C458.138 401.037 439.166 401.621 426.841 400.903C425.583 400.824 424.337 400.824 423.08 400.88C413.965 401.217 391.199 403.642 371.723 421.39C362.08 430.168 356.366 439.889 352.964 447.545H352.931L352.964 447.568Z" fill="url(#paint7_linear_644_59)" fill-opacity="0.8"/>
<path d="M485.237 253.408C486.269 254.026 487.325 252.656 486.494 251.792C482.509 247.728 476.997 243.709 469.386 241.565C463.111 239.78 457.902 239.982 452.895 240.005C452.895 240.005 446.878 240.005 410.013 236.581C387.775 234.493 364.56 222.032 350.966 204.677C331.826 180.239 334.554 149.795 337.45 134.663C337.675 133.495 336.081 132.934 335.531 133.989C329.626 145.08 322.464 160.403 322.071 178.679C321.768 193.227 327.033 207.372 329.098 216.543C329.267 217.295 328.593 217.935 327.841 217.767C324.271 216.936 318.086 214.837 312.428 209.493C307.579 204.924 305.042 199.772 303.706 195.843C303.347 194.754 301.753 195.012 301.697 196.123C301.416 203.061 302.808 213.119 307.938 224.48C314.629 239.331 326.909 246.74 334.969 250.254C336.058 250.725 336.945 249.311 336.058 248.525C331.736 244.877 327.257 240.139 323.385 234.122C321.959 231.922 320.769 229.744 319.736 227.656C319.321 226.792 320.208 225.849 321.106 226.264C325.843 228.498 330.827 230.665 336.036 232.787C338.685 233.875 341.334 234.908 343.916 235.885C344.747 236.188 345.555 235.38 345.252 234.549C343.636 230.205 342.019 225.883 340.403 221.538C340.01 220.45 341.402 219.619 342.154 220.506C352.908 233.325 364.639 239.196 372.475 242.093C396.666 251.04 427.705 248.143 434.306 247.447C445.733 246.246 454.063 244.192 466.041 246.392C473.977 247.84 480.365 250.602 485.27 253.408H485.237Z" fill="#FFCD03"/>
<path d="M485.237 253.408C486.269 254.026 487.325 252.656 486.494 251.792C482.509 247.728 476.997 243.709 469.386 241.565C463.111 239.78 457.902 239.982 452.895 240.005C452.895 240.005 446.878 240.005 410.013 236.581C387.775 234.493 364.56 222.032 350.966 204.677C331.826 180.239 334.554 149.795 337.45 134.663C337.675 133.495 336.081 132.934 335.531 133.989C329.626 145.08 322.464 160.403 322.071 178.679C321.768 193.227 327.033 207.372 329.098 216.543C329.267 217.295 328.593 217.935 327.841 217.767C324.271 216.936 318.086 214.837 312.428 209.493C307.579 204.924 305.042 199.772 303.706 195.843C303.347 194.754 301.753 195.012 301.697 196.123C301.416 203.061 302.808 213.119 307.938 224.48C314.629 239.331 326.909 246.74 334.969 250.254C336.058 250.725 336.945 249.311 336.058 248.525C331.736 244.877 327.257 240.139 323.385 234.122C321.959 231.922 320.769 229.744 319.736 227.656C319.321 226.792 320.208 225.849 321.106 226.264C325.843 228.498 330.827 230.665 336.036 232.787C338.685 233.875 341.334 234.908 343.916 235.885C344.747 236.188 345.555 235.38 345.252 234.549C343.636 230.205 342.019 225.883 340.403 221.538C340.01 220.45 341.402 219.619 342.154 220.506C352.908 233.325 364.639 239.196 372.475 242.093C396.666 251.04 427.705 248.143 434.306 247.447C445.733 246.246 454.063 244.192 466.041 246.392C473.977 247.84 480.365 250.602 485.27 253.408H485.237Z" fill="url(#paint8_linear_644_59)" fill-opacity="0.8"/>
<path d="M402.312 367.719C397.519 371.648 369.454 393.818 328.02 386.578C295.646 380.92 274.272 360.635 265.403 350.723C264.651 349.859 265.628 348.579 266.661 349.106C270.085 350.891 274.182 352.699 278.841 354.147C284.386 355.898 289.404 356.762 293.636 357.189C294.781 357.301 295.23 355.741 294.197 355.236C284.049 350.195 268.648 340.743 254.268 324.084C238.799 306.168 231.558 288.005 228.19 277.116C227.887 276.117 229.055 275.365 229.829 276.027C232.782 278.564 235.711 281.067 238.664 283.604C239.528 284.357 240.786 283.324 240.258 282.325C235.97 274.523 230.817 262.657 228.808 247.75C226.215 228.307 230.312 213.118 233.264 205.013C233.567 204.183 234.712 204.093 235.128 204.879C241.672 216.744 254.526 236.086 276.73 250.511C304.929 268.843 333.207 269.572 348.822 269.763C385.126 270.212 392.063 257.639 416.703 262.13C429.692 264.498 447.192 271.514 467.309 292.192C468.229 293.135 466.916 294.538 465.917 293.696C445.969 277.374 428.692 271.514 414.93 269.932C389.324 266.979 383.835 279.631 347.744 279.743C333.195 279.799 305.333 279.518 276.663 261.916C259.364 251.297 247.79 238.073 240.83 228.621C240.269 227.869 239.102 228.172 238.989 229.092C237.541 240.352 236.542 263.196 250.327 282.111C264.068 300.971 286.631 307.886 309.902 315.048C317.008 317.225 323.384 318.73 328.683 319.785C329.828 320.009 329.772 321.682 328.604 321.817C319.77 322.816 308.679 323.186 296.005 321.57C280.098 319.56 266.863 315.104 257.108 310.984C256.131 310.569 255.244 311.736 255.884 312.567C262.765 321.345 275.81 335.411 296.005 345.716C315.032 355.415 332.196 357.503 342.76 357.784C343.871 357.818 344.152 359.367 343.097 359.793C337.719 361.859 331.085 363.835 323.373 364.98C312.17 366.618 302.246 366.035 294.613 364.901C293.558 364.733 292.974 366.125 293.861 366.764C301.909 372.534 314.033 379.551 329.525 383.064C367.591 391.674 396.037 372.254 402.368 367.685L402.335 367.741L402.312 367.719Z" fill="#FFCD03"/>
<path d="M402.312 367.719C397.519 371.648 369.454 393.818 328.02 386.578C295.646 380.92 274.272 360.635 265.403 350.723C264.651 349.859 265.628 348.579 266.661 349.106C270.085 350.891 274.182 352.699 278.841 354.147C284.386 355.898 289.404 356.762 293.636 357.189C294.781 357.301 295.23 355.741 294.197 355.236C284.049 350.195 268.648 340.743 254.268 324.084C238.799 306.168 231.558 288.005 228.19 277.116C227.887 276.117 229.055 275.365 229.829 276.027C232.782 278.564 235.711 281.067 238.664 283.604C239.528 284.357 240.786 283.324 240.258 282.325C235.97 274.523 230.817 262.657 228.808 247.75C226.215 228.307 230.312 213.118 233.264 205.013C233.567 204.183 234.712 204.093 235.128 204.879C241.672 216.744 254.526 236.086 276.73 250.511C304.929 268.843 333.207 269.572 348.822 269.763C385.126 270.212 392.063 257.639 416.703 262.13C429.692 264.498 447.192 271.514 467.309 292.192C468.229 293.135 466.916 294.538 465.917 293.696C445.969 277.374 428.692 271.514 414.93 269.932C389.324 266.979 383.835 279.631 347.744 279.743C333.195 279.799 305.333 279.518 276.663 261.916C259.364 251.297 247.79 238.073 240.83 228.621C240.269 227.869 239.102 228.172 238.989 229.092C237.541 240.352 236.542 263.196 250.327 282.111C264.068 300.971 286.631 307.886 309.902 315.048C317.008 317.225 323.384 318.73 328.683 319.785C329.828 320.009 329.772 321.682 328.604 321.817C319.77 322.816 308.679 323.186 296.005 321.57C280.098 319.56 266.863 315.104 257.108 310.984C256.131 310.569 255.244 311.736 255.884 312.567C262.765 321.345 275.81 335.411 296.005 345.716C315.032 355.415 332.196 357.503 342.76 357.784C343.871 357.818 344.152 359.367 343.097 359.793C337.719 361.859 331.085 363.835 323.373 364.98C312.17 366.618 302.246 366.035 294.613 364.901C293.558 364.733 292.974 366.125 293.861 366.764C301.909 372.534 314.033 379.551 329.525 383.064C367.591 391.674 396.037 372.254 402.368 367.685L402.335 367.741L402.312 367.719Z" fill="url(#paint9_linear_644_59)" fill-opacity="0.8"/>
<path d="M571.73 384.468C554.869 417.82 528.433 446.378 496.439 466.27C480.443 476.238 462.975 483.793 444.891 489.226C435.809 491.763 426.582 494.02 417.22 495.322C412.561 496.153 407.824 496.467 403.12 497.017C398.383 497.242 393.668 497.747 388.942 497.657C351.022 498.465 313.011 488.295 280.098 469.323C263.573 459.939 248.554 447.983 235.128 434.524C221.949 420.839 210.274 405.606 201.136 388.914C182.546 355.708 173.386 317.372 174.554 279.396C175.867 241.419 187.486 203.836 208.074 172.044C228.471 140.062 257.871 114.232 291.559 97.4047C325.405 80.8692 363.639 73.4042 400.864 76.8055C382.218 76.031 363.527 77.6924 345.386 81.7336C327.279 85.7973 309.745 92.297 293.389 100.986C260.677 118.206 232.501 143.969 213.339 175.401C194.109 206.721 182.995 242.991 182.187 279.688C181.3 316.295 190.18 353.16 208.186 385.086C216.908 401.183 228.112 415.866 240.763 429.102C253.639 442.112 268.097 453.596 283.948 462.812C299.687 472.197 316.806 479.247 334.464 484.186C352.189 488.89 370.521 491.539 388.908 491.573C393.511 491.741 398.102 491.326 402.705 491.213C407.274 490.742 411.899 490.54 416.445 489.821C425.583 488.733 434.608 486.701 443.533 484.422C461.28 479.46 478.501 472.354 494.441 462.97C510.404 453.663 525.289 442.325 538.244 429.012C551.232 415.721 562.514 400.757 571.741 384.524V384.491L571.73 384.468Z" fill="#FFCD03"/>
<path d="M571.73 384.468C554.869 417.82 528.433 446.378 496.439 466.27C480.443 476.238 462.975 483.793 444.891 489.226C435.809 491.763 426.582 494.02 417.22 495.322C412.561 496.153 407.824 496.467 403.12 497.017C398.383 497.242 393.668 497.747 388.942 497.657C351.022 498.465 313.011 488.295 280.098 469.323C263.573 459.939 248.554 447.983 235.128 434.524C221.949 420.839 210.274 405.606 201.136 388.914C182.546 355.708 173.386 317.372 174.554 279.396C175.867 241.419 187.486 203.836 208.074 172.044C228.471 140.062 257.871 114.232 291.559 97.4047C325.405 80.8692 363.639 73.4042 400.864 76.8055C382.218 76.031 363.527 77.6924 345.386 81.7336C327.279 85.7973 309.745 92.297 293.389 100.986C260.677 118.206 232.501 143.969 213.339 175.401C194.109 206.721 182.995 242.991 182.187 279.688C181.3 316.295 190.18 353.16 208.186 385.086C216.908 401.183 228.112 415.866 240.763 429.102C253.639 442.112 268.097 453.596 283.948 462.812C299.687 472.197 316.806 479.247 334.464 484.186C352.189 488.89 370.521 491.539 388.908 491.573C393.511 491.741 398.102 491.326 402.705 491.213C407.274 490.742 411.899 490.54 416.445 489.821C425.583 488.733 434.608 486.701 443.533 484.422C461.28 479.46 478.501 472.354 494.441 462.97C510.404 453.663 525.289 442.325 538.244 429.012C551.232 415.721 562.514 400.757 571.741 384.524V384.491L571.73 384.468Z" fill="url(#paint10_linear_644_59)" fill-opacity="0.8"/>
</g>
<defs>
<filter id="filter0_dd_644_59" x="0" y="0" width="750" height="711.773" filterUnits="userSpaceOnUse" color-interpolation-filters="sRGB">
<feFlood flood-opacity="0" result="BackgroundImageFix"/>
<feColorMatrix in="SourceAlpha" type="matrix" values="0 0 0 0 0 0 0 0 0 0 0 0 0 0 0 0 0 0 127 0" result="hardAlpha"/>
<feOffset dy="4"/>
<feGaussianBlur stdDeviation="40"/>
<feComposite in2="hardAlpha" operator="out"/>
<feColorMatrix type="matrix" values="0 0 0 0 0.176471 0 0 0 0 0.176471 0 0 0 0 0.176471 0 0 0 1 0"/>
<feBlend mode="normal" in2="BackgroundImageFix" result="effect1_dropShadow_644_59"/>
<feColorMatrix in="SourceAlpha" type="matrix" values="0 0 0 0 0 0 0 0 0 0 0 0 0 0 0 0 0 0 127 0" result="hardAlpha"/>
<feOffset dy="-4"/>
<feGaussianBlur stdDeviation="20"/>
<feComposite in2="hardAlpha" operator="out"/>
<feColorMatrix type="matrix" values="0 0 0 0 0.176471 0 0 0 0 0.176471 0 0 0 0 0.176471 0 0 0 1 0"/>
<feBlend mode="normal" in2="effect1_dropShadow_644_59" result="effect2_dropShadow_644_59"/>
<feBlend mode="normal" in="SourceGraphic" in2="effect2_dropShadow_644_59" result="shape"/>
</filter>
<linearGradient id="paint0_linear_644_59" x1="102.589" y1="540.578" x2="112.183" y2="563.707" gradientUnits="userSpaceOnUse">
<stop stop-color="#FFE26B"/>
<stop offset="1" stop-color="white" stop-opacity="0"/>
</linearGradient>
<linearGradient id="paint1_linear_644_59" x1="293.823" y1="540.578" x2="303.494" y2="563.63" gradientUnits="userSpaceOnUse">
<stop stop-color="#FFE26B"/>
<stop offset="1" stop-color="white" stop-opacity="0"/>
</linearGradient>
<linearGradient id="paint2_linear_644_59" x1="484.334" y1="540.557" x2="494.011" y2="563.615" gradientUnits="userSpaceOnUse">
<stop stop-color="#FFE26B"/>
<stop offset="1" stop-color="white" stop-opacity="0"/>
</linearGradient>
<linearGradient id="paint3_linear_644_59" x1="561.512" y1="540.581" x2="572.41" y2="546.072" gradientUnits="userSpaceOnUse">
<stop stop-color="#FFE26B"/>
<stop offset="1" stop-color="white" stop-opacity="0"/>
</linearGradient>
<linearGradient id="paint4_linear_644_59" x1="198.299" y1="540.469" x2="207.899" y2="563.604" gradientUnits="userSpaceOnUse">
<stop stop-color="#FFE26B"/>
<stop offset="1" stop-color="white" stop-opacity="0"/>
</linearGradient>
<linearGradient id="paint5_linear_644_59" x1="388.844" y1="540.581" x2="398.444" y2="563.716" gradientUnits="userSpaceOnUse">
<stop stop-color="#FFE26B"/>
<stop offset="1" stop-color="white" stop-opacity="0"/>
</linearGradient>
<linearGradient id="paint6_linear_644_59" x1="608.891" y1="540.469" x2="618.49" y2="563.604" gradientUnits="userSpaceOnUse">
<stop stop-color="#FFE26B"/>
<stop offset="1" stop-color="white" stop-opacity="0"/>
</linearGradient>
<linearGradient id="paint7_linear_644_59" x1="415.14" y1="262.129" x2="432.125" y2="314.776" gradientUnits="userSpaceOnUse">
<stop stop-color="#FFE26B"/>
<stop offset="1" stop-color="white" stop-opacity="0"/>
</linearGradient>
<linearGradient id="paint8_linear_644_59" x1="351.627" y1="142.757" x2="359.401" y2="175.366" gradientUnits="userSpaceOnUse">
<stop stop-color="#FFE26B"/>
<stop offset="1" stop-color="white" stop-opacity="0"/>
</linearGradient>
<linearGradient id="paint9_linear_644_59" x1="292.659" y1="218.597" x2="306.408" y2="267.418" gradientUnits="userSpaceOnUse">
<stop stop-color="#FFE26B"/>
<stop offset="1" stop-color="white" stop-opacity="0"/>
</linearGradient>
<linearGradient id="paint10_linear_644_59" x1="281.678" y1="108.737" x2="322.626" y2="213.742" gradientUnits="userSpaceOnUse">
<stop stop-color="#FFE26B"/>
<stop offset="1" stop-color="white" stop-opacity="0"/>
</linearGradient>
</defs>
</svg>
